<?xml version="1.0" encoding="utf-8"?>
<!-- Generator: Adobe Illustrator 27.2.0, SVG Export Plug-In . SVG Version: 6.00 Build 0)  -->
<svg version="1.1" id="Layer_1" xmlns="http://www.w3.org/2000/svg" xmlns:xlink="http://www.w3.org/1999/xlink" x="0px" y="0px"
	 viewBox="0 0 414.4 333.1" style="enable-background:new 0 0 414.4 333.1;" xml:space="preserve">
<style type="text/css">
	.st0{fill:#A855F7;}
</style>
<path class="st0" d="M406.6,133.9c-9.1,58-18.1,116.1-27.2,174.1c-0.2,0.2-0.4,0.3-0.5,0.5c-8.2,19.3-21.9,27-42.6,23.7
	c-51.7-8.1-103.5-16.2-155.2-24.3c-49.6-7.8-99.3-15.5-148.9-23.3c-10.1-1.6-18.4-5.9-24.7-14.1c-5-6.5-6.8-14-7.4-22
	c9.1-58,18.1-116.1,27.2-174.1c0.5,0.3,1.1,0.6,1.5,1c46.1,42.3,92.1,84.7,138.2,127c19.8,18.2,43.1,21.9,67.5,10.6
	c55.9-25.8,111.8-51.7,167.7-77.5C403.6,135,405.1,134.5,406.6,133.9z"/>
<path class="st0" d="M33.5,34.6c0.5-3.2,1-6.4,1.5-9.6c0.9-2,1.8-4.1,2.8-6C45.2,4.7,59.8-2.1,77,0.6
	c101.6,15.9,203.2,31.8,304.9,47.7c1.1,0.2,2.2,0.3,3.3,0.6c14.9,3.2,25.9,14.3,28.4,28.9c0.4,2.2,0.6,4.4,0.9,6.6
	c-0.5,3.2-1,6.4-1.5,9.6c-3.9,9.4-10,16.7-19.5,21.1c-56.5,26-112.9,52.2-169.4,78.2c-15.1,7-28.9,4.6-41.2-6.6
	c-45.7-42-91.4-84-137.1-126C38.4,54,34.2,45.9,33.9,36C33.9,35.6,33.6,35.1,33.5,34.6z"/>
</svg>
