<?xml version="1.0" encoding="utf-8"?>
<!-- Generator: Adobe Illustrator 27.2.0, SVG Export Plug-In . SVG Version: 6.00 Build 0)  -->
<svg version="1.1" id="Layer_1" xmlns="http://www.w3.org/2000/svg" xmlns:xlink="http://www.w3.org/1999/xlink" x="0px" y="0px"
	 viewBox="0 0 1024 1024" style="enable-background:new 0 0 1024 1024;" xml:space="preserve">
<style type="text/css">
	.st0{fill:#0F172A;}
	.st1{fill:#D6C9E3;}
	.st2{fill:#0F162A;}
	.st3{fill:#E65CAF;}
</style>
<g>
	<path class="st2" d="M963.9445,618.0193l-0.4987,12.7214c-0.0322,0.8041-0.0805,1.6083-0.1606,2.4124l-2.0908,23.7703
		c-0.0805,0.9167-0.1932,1.8174-0.3216,2.7341l-1.5926,11.0327c-0.3538,2.4606-0.8842,4.8892-1.6083,7.2695l-2.4603,8.1539
		l-1.1418,6.9637c-0.7884,4.6801-2.2196,9.2314-4.2943,13.5095l-5.2108,10.8076l-7.993,20.0873
		c-0.8041,2.0103-1.7209,3.9564-2.7823,5.838l-5.3557,9.6175c-2.2192,3.9885-4.9854,7.6393-8.2019,10.8719l-5.5167,5.5485
		l-4.3101,6.5457c-0.5469,0.8203-1.1257,1.6244-1.7209,2.4285l-9.5692,12.7535c-2.4929,3.3292-5.4197,6.3527-8.6684,8.9742
		l-14.2333,11.4187c-0.0966,0.0804-0.1932,0.1609-0.3055,0.2252l-9.2153,7.2855c-0.8685,0.7076-1.7854,1.3669-2.7022,1.9942
		l-9.3115,6.4009c-2.7662,1.8817-5.6934,3.4899-8.7815,4.7927l-9.6975,4.1171l-9.6657,4.8892
		c-0.6758,0.3538-1.3511,0.6754-2.0425,0.981l-10.3898,4.6961c-2.573,1.158-5.2269,2.0908-7.9448,2.7984l-11.1774,2.9111
		l-10.2767,2.8145c-1.4155,0.386-2.8306,0.7075-4.2783,0.9649l-11.5634,2.0908c-0.161,0.0322-0.3377,0.0643-0.5148,0.0965
		l-13.3488,2.2677c-1.0935,0.193-2.187,0.3376-3.2966,0.4503l-10.7592,1.1097c-2.5251,0.2573-5.0663,0.3217-7.6071,0.1929
		l-9.6818-0.4985l-11.3867,0.402c-2.9755,0.0965-5.9505-0.0482-8.8777-0.4824l-22.0654-3.1683
		c-2.0104-0.2895-4.0046-0.7076-5.9506-1.2383l-10.4698-2.8306l-22.3874-4.4549c-3.2644-0.6594-6.4653-1.6404-9.5369-2.9271
		l-10.4215-4.3745c-1.7049-0.7076-3.3615-1.5118-4.9858-2.4124l-6.4009-3.5864l-5.9988-2.2677
		c-2.734-1.0293-5.3553-2.2998-7.8643-3.7794c-0.9169,3.0236-2.123,5.9666-3.6187,8.7811l-7.5909,14.3618
		c-5.79,10.9684-15.4557,19.3797-27.1157,23.5934l-10.4698,3.7955c-5.0497,1.8174-10.3411,2.8145-15.7128,2.9593l-11.7402,0.2895
		c-0.4182,0.0161-0.8363,0.0161-1.2545,0.0161c-2.7341,0-5.4681-0.2252-8.1699-0.6755l-10.1322-1.6725
		c-14.8604-2.4607-27.8232-11.5312-35.2371-24.6548l-7.752-13.7025c-2.0908-3.699-3.7152-7.6553-4.7926-11.7725l-2.0587-7.7518
		l-10.6306,13.4612c-2.3963,3.0557-5.1627,5.822-8.2182,8.2343l-8.7972,6.9639l-7.1247,5.8701
		c-0.756,0.6273-1.5441,1.2384-2.3482,1.8334l-10.132,7.382c-2.7662,2.0103-5.7414,3.7472-8.8616,5.1464l-10.3894,4.6962
		c-0.9327,0.4181-1.8656,0.8041-2.8306,1.174l-10.5823,4.0207l-8.8294,4.4709c-0.6756,0.3378-1.3511,0.6594-2.0425,0.965
		l-10.3894,4.6961c-4.8892,2.2033-10.0839,3.6025-15.4234,4.1494l-7.8645,0.8041l-7.784,2.0264
		c-2.4607,0.6432-4.9536,1.0936-7.4785,1.3509l-33.1786,3.3934c-1.6888,0.177-3.3773,0.2574-5.0659,0.2574
		c-1.5924,0-3.1685-0.0804-4.7445-0.2252l-8.8135-0.8364l-5.8539,0.5952c-5.838,0.595-11.7243,0.1608-17.4177-1.2867
		l-45.5783-11.6439c-6.0469-1.5439-11.7563-4.2137-16.8224-7.8644l-5.5648-4.0046l-6.9315-3.4899
		c-1.6083-0.8041-3.1523-1.6887-4.664-2.6537l-9.6979-6.2561c-1.56-0.9971-3.0556-2.0908-4.471-3.2487l-9.8907-8.0414
		c-3.1521-2.5732-5.9827-5.5325-8.4273-8.7973l-2.6215-3.4899l-5.1305-4.1815c-5.645-4.5997-10.2125-10.3895-13.3968-16.9352
		l-4.0849-8.4595l-4.6642-8.5881l-5.0981-8.7329c-1.5117-2.6053-2.7984-5.3394-3.8277-8.1861l-3.7955-10.4858
		c-1.3833-3.8277-2.2997-7.8163-2.7179-11.8691l-1.7371-17.0477c-0.788-7.6874,0.2252-15.4715,2.9594-22.7087l6.417-16.9672
		c4.6799-12.3676,14.0885-22.3711,26.1344-27.8069l10.3894-4.6801c3.715-1.6887,7.6232-2.8949,11.6439-3.6186l11.5634-2.0908
		c5.8221-1.0454,11.7887-1.0615,17.6105-0.0161l12.9144,2.2998c15.0053,2.6698,27.968,12.0621,35.1891,25.5071l7.8321,14.587
		c1.7048,3.1683,3.0558,6.5135,4.0368,9.9552l2.9111,9.9713l0.7719,0.8684l5.5645,4.069c0.7077,0.5146,1.3994,1.0454,2.0747,1.6083
		l4.5676,3.7151l6.6098,2.8788l9.4246,3.0236l6.5295,1.158l6.0952,0.3056l13.0432-0.7076l15.0695-2.8145l9.9231-3.1683
		l13.8953-7.0602l9.4729-7.8163l5.1142-6.2722l5.9827-9.9391l3.5703-7.9932l-0.0483-1.9942
		c-0.0964-3.6829,0.2254-7.3659,0.9329-10.9684l1.3189-6.5939l-0.1449-5.5163l-1.2867-24.8478l-0.9166-1.7852
		c-1.0454-2.0908-1.962-4.2297-2.7181-6.4491l-3.8758-11.3705c-0.4021-1.1741-0.7558-2.3481-1.0615-3.5543l-0.4824-1.8334
		l-6.5458-8.6364l-5.9022-5.8701l-4.6803-4.2941l-11.0808-7.5428l-8.8938-1.5761l-15.6645-2.5571l-8.1379,1.3027
		c-2.5571,0.4021-5.1303,0.6111-7.7035,0.6111l-18.1091,0.0482h-0.1286c-4.632,0-9.2475-0.6434-13.7025-1.9299l-9.328-2.6697
		c-6.4975-1.8495-12.5446-5.0017-17.7876-9.2637l-9.8746-8.0574c-10.261-8.3469-16.7744-20.425-18.1252-33.5807l-1.0935-10.7593
		c-0.4504-4.4066-0.3218-8.8616,0.4021-13.236l1.6886-10.1321c0.3538-2.0907,0.8202-4.1494,1.4314-6.1758
		c-1.3028,0.4665-2.6056,0.8685-3.9402,1.2062l-11.4833,2.9914c-6.417,1.6726-13.0912,2.0425-19.653,1.0937l-11.0488-1.5762
		c-10.9522-1.576-21.0683-6.7547-28.7559-14.7156l-11.1452-11.5475c-6.5297-6.7546-11.0007-15.2142-12.9305-24.3974l-2.5412-12.1102
		l-2.8948-6.819c-1.93-4.5836-3.1843-9.4245-3.6828-14.3619l-2.2035-21.5186c-0.2411-2.348-0.3216-4.7122-0.225-7.0764
		l0.5146-12.7375c0.032-0.9167,0.0964-1.8334,0.1769-2.7502l2.2033-22.8696c0.0322-0.4825,0.0964-0.981,0.1447-1.4635
		l1.4958-11.9172c0.2091-1.5762,0.4824-3.1361,0.8202-4.664l2.4766-11.1292c0.6435-2.8789,1.5441-5.7094,2.6859-8.4273
		l4.3746-10.4056c0.1928-0.4503,0.3699-0.8845,0.5788-1.3349l5.1786-11.3865c1.3994-3.1039,3.1201-6.0471,5.1305-8.7973
		l7.1569-9.7943c0.5146-0.7076,1.0452-1.3992,1.5922-2.0747l13.6864-16.8064c1.3026-1.6083,2.7018-3.1201,4.1974-4.5513
		l7.4304-7.0925c0.5951-0.579,1.2223-1.1418,1.8493-1.7048l8.3309-7.1889c3.0558-2.6537,6.4492-4.9213,10.0517-6.7547l7.6232-3.8438
		l6.8673-5.0178c4.6801-3.4095,9.9231-5.9827,15.5038-7.6071l9.1188-2.6376l29.2867-9.2314
		c3.2326-1.0132,6.5456-1.6887,9.907-2.0425l17.0315-1.737c2.5249-0.2573,5.0661-0.3216,7.6071-0.193l23.6739,1.1902
		c3.8597,0.209,7.6874,0.8523,11.4024,1.9298l12.1747,3.5382c0.6914-7.0763,2.8628-13.9759,6.4814-20.1999l6.1596-10.5984
		c4.0207-6.8995,9.6335-12.7376,16.3723-17.0155l10.2125-6.4814c8.2021-5.2108,17.723-7.9288,27.4692-7.7519l15.4234,0.2252
		c5.4197,0.0804,10.7914,1.0454,15.8895,2.8467l17.868,6.3366c6.3204,2.2355,12.1103,5.7254,17.0476,10.2447l6.9315,6.3527
		l7.6071,6.1918l7.6071,5.5002c3.458,2.4768,6.578,5.4039,9.2959,8.6847l7.7681,9.4083l14.8443,16.8547
		c1.3831,1.5761,2.6696,3.2327,3.8597,4.9695l7.4626,11.0167c1.3509,1.9942,2.5732,4.1011,3.6186,6.2722l4.5994,9.4888
		c0.1932,0.4021,0.3701,0.8041,0.563,1.2223l3.8597,8.5399l1.7048-2.6054l6.0954-12.3998c0.5468-1.1097,1.1257-2.2033,1.753-3.2647
		l8.4917-14.4584c0.0803-0.1447,0.1769-0.3056,0.2735-0.4503l6.9637-11.5957c0.1447-0.2412,0.3057-0.4986,0.4663-0.7558
		l5.4522-8.7169c2.4766-3.9563,5.5002-7.5428,8.9743-10.6627l8.0731-7.2372l8.0414-8.0735c1.9141-1.9299,3.9889-3.699,6.1759-5.2752
		l26.07-18.7846l6.6584-5.7415c5.7734-5.0017,12.6407-8.6042,20.0389-10.5341l4.8087-1.2544l3.4738-2.0264
		c3.1522-1.8335,6.4814-3.3291,9.9551-4.4388l16.678-5.3234c2.4446-0.788,4.9536-1.3831,7.5104-1.7852l16.9352-2.6376
		c0.2415-0.0322,0.4664-0.0643,0.6914-0.0965l23.2238-3.2809c2.975-0.4342,5.9666-0.579,8.9739-0.4664l12.7216,0.5147
		c1.7206,0.0643,3.4255,0.2252,5.1303,0.4664l11.0325,1.5923c1.2545,0.1769,2.509,0.4181,3.7635,0.6915l11.1295,2.4767
		c0.7237,0.1769,1.4634,0.3538,2.1871,0.5469l12.1264,3.2969c3.2004,0.8684,6.3043,2.0585,9.2797,3.5382l10.5021,5.2751
		c1.5922,0.8041,3.1682,1.6887,4.6799,2.6698l9.6979,6.2561c0.611,0.386,1.2062,0.8041,1.8011,1.2223l7.8163,5.5325
		c0.9168,0.6433,1.7853,1.3188,2.6535,2.0103l8.8938,7.2533c2.8145,2.2998,5.3878,4.8891,7.6393,7.7519l7.2855,9.2153
		c0.8846,1.1258,1.721,2.2677,2.509,3.4578l12.8661,19.5243c3.7152,5.629,6.2399,11.9495,7.43,18.5756l0.9973,5.5325l2.1713,4.7926
		c1.6723,3.7151,2.8946,7.6232,3.6186,11.6278l2.0905,11.5635c0.2254,1.2545,0.402,2.525,0.5309,3.7955l3.4898,34.0632
		c0.4503,4.4228,0.3055,8.8776-0.4182,13.2521l-1.5117,9.1511l-1.3668,10.9523c-0.4987,3.9081-1.4477,7.7519-2.8467,11.4348
		l-3.2327,8.556l-5.0663,20.3768c-1.5278,6.1758-4.2296,11.9816-7.9448,17.1442l-4.1172,5.7094l-6.5776,12.8661
		c-0.4343,0.8523-0.9007,1.7048-1.3994,2.5411l-8.4756,14.4583c-1.7371,2.9431-3.7631,5.7094-6.0471,8.2343l-0.7236,0.8041
		l4.5032,2.3963l8.3951,3.1682c3.297,1.2384,6.4492,2.8306,9.392,4.7444l9.6983,6.2562c3.0878,1.9942,5.9505,4.3263,8.5396,6.9478
		l5.3074,5.4037l7.6071,5.6129c1.415,1.0454,2.7822,2.1712,4.085,3.3613l8.0092,7.3337c0.4987,0.4663,0.9973,0.9328,1.4795,1.4153
		l9.0709,9.0385c3.6025,3.5864,6.642,7.7036,8.99,12.2067l2.1069,3.9886l4.9536,6.031c3.0717,3.7151,5.5806,7.8483,7.4622,12.2871
		l4.2944,10.1483l4.0529,8.3629c0.9969,2.0587,1.8494,4.1816,2.5569,6.3527l3.9724,12.2711
		c0.1449,0.4663,0.2894,0.9328,0.4343,1.3992l9.7623,33.4199c0.8364,2.911,1.4312,5.8862,1.7371,8.8937l1.2863,12.5606
		C963.9766,613.3071,964.041,615.6552,963.9445,618.0193z"/>
	<path class="st3" d="M338.2511,512.8259l15.9766,5.6111l16.2506,8.3025l10.5973,6.1633l8.091,8.2309l8.8939,7.2432l8.091,8.2309
		l9.8832,8.0474l7.3785,10.1163l6.5713,11.1044l5.6767,11.196l6.481,10.2082l4.1803,23.1279l3.883,11.3796l1.744,17.0345
		l-0.1692,42.5972l-3.3819,11.218l-1.4965,11.9304l-3.3804,11.2178l-4.3697,10.4136l-2.4845,11.1246l-9.1066,17.2399
		l-25.6617,32.526l-9.2189,7.2852l-7.5184,6.2056l-10.1164,7.3771l-10.3917,4.6888l-13.0817,4.9612l-11.196,5.6766l-10.3917,4.6888
		l-11.655,1.1932l-11.4715,2.9855l-33.1729,3.3963l-13.7239-1.3113l-10.7589,1.1015l-45.5841-11.6406l-8.8037-6.3484
		l-10.5039-5.2659l-9.701-6.2536l-9.8833-8.0489l-6.2972-8.413l-9.8833-8.0489l-4.5956-9.4957l-5.5847-10.2984l-5.4932-9.4039
		l-3.7913-10.4835l-1.744-17.0345l6.4169-16.9645l10.3918-4.6874l11.5633-2.0894l12.9197,2.3007l7.8359,14.5983l4.2503,14.967
		l5.5849,10.2999l8.1813,9.1271l9.7929,7.1512l9.8833,8.0489l15.1707,6.5991l14.9873,4.8069l12.9199,2.3022l11.8385,0.5989
		l18.9199-1.0316l21.3344-3.9952l16.6672-5.3314l22.3923-11.3503l17.5431-14.4788l10.4616-12.8497l9.2903-15.4463l5.174-11.4014
		l4.278-11.3097l-0.2957-11.7469l2.3925-12.0222l-0.2973-11.7482l-1.8781-36.0463l-5.6766-11.196l-3.883-11.3796l-2.9854-11.4716
		l-14.6639-19.3366l-9.0789-9.0352l-7.9978-7.335l-19.4926-13.4064l-10.3203-3.4723l-12.9199-2.3021l-23.9525-3.889l-16.0467,2.5483
		l-18.1155,0.0438l-9.3326-2.6694l-9.8832-8.0474l-1.1015-10.7589l1.6801-10.1368l5.2658-10.5053l7.5184-6.2056l9.404-5.4917
		l15.7697-5.2394l15.3123-9.7215l8.231-8.0895l16.0961-19.768l9.7275-20.0199l4.278-11.3097l6.5583-33.2866l-0.2972-11.7468
		l0.6004-11.8387l-4.8725-12.1853l-2.0894-11.5633l-3.883-11.3796l-7.1936-8.3242l-10.689-7.0594l-8.8035-6.3455l-10.5039-5.2659
		l-11.1262-2.4858l-11.8385-0.5989l-16.1384,1.6523l-17.5649,5.4218l-20.6917,10.2722l-7.6087,5.3094l-6.3471,8.8021l-7.2431,8.8954
		l-6.9677,11.5851l-3.564,9.4241l0.2959,11.7484l0.3889,12.6429l-2.4843,11.126l5.831,39.265l-2.117,14.7134l-7.5186,6.2041
		l-11.4714,2.9869l-11.0343-1.5882l-11.1479-11.5413l-3.5363-16.8525l-4.7806-11.2878l-2.203-21.5179l0.5086-12.7347l2.1886-22.873
		l1.4965-11.9304l2.4843-11.1261l4.3697-10.4136l5.174-11.4015l7.1513-9.7914l13.6819-16.8014l7.4265-7.1032l8.3228-7.1934
		l11.196-5.6767l10.1164-7.3771l9.6777-2.8033l29.8407-9.3965l17.036-1.7442l23.6772,1.1993l34.5498,10.0524l11.4016,5.1755
		l18.5949,13.4968l8.1829,9.1284l5.5834,10.3001l6.3891,9.3106l5.4932,9.4038l6.6645,12.0003l3.7913,10.4836l0.3876,12.6445
		l2.1826,12.4592l0.204,10.8508l-0.6906,10.9424l-0.4167,13.6323l-1.5882,11.0343l-3.2886,12.1139l-4.2779,11.3097l-11.4293,21.1011
		l-3.4736,10.3219l-20.1192,24.7087l-5.8881,13.2855L338.2511,512.8259z M163.6741,789.8036l-4.4834,0.459l0.459,4.4834
		l5.3795-0.5508L163.6741,789.8036z M180.1581,782.6831l-0.4592-4.4849l-6.3673-0.2535l0.4589,4.4819L180.1581,782.6831z
		 M139.0772,399.1353l0.4385-4.5753l-3.4955,1.2634L139.0772,399.1353z M160.0661,400.6099l-4.2997,2.2527l-3.5858,0.3671
		l-2.2309,4.7573l5.4714,0.3468l2.4144-2.9651L160.0661,400.6099z M197.5535,819.8557l-0.459-4.4834l-5.3795,0.5508l0.459,4.4833
		L197.5535,819.8557z M150.6899,379.8264l-2.5978,1.1729l1.0796,1.7004l2.598-1.1715L150.6899,379.8264z M206.5684,801.7196
		l-3.4956,1.2634l1.1731,2.5993l2.598-1.1714L206.5684,801.7196z M156.0549,334.8848l2.7816,0.6222l-0.2754-2.6897l-2.7816-0.6222
		L156.0549,334.8848z M168.494,323.6465l3.6776,0.529l0.6207-2.7815l-3.6776-0.529L168.494,323.6465z M224.4494,817.102
		l-0.459-4.4834l-5.378,0.5506l1.4468,5.2877L224.4494,817.102z M241.1605,829.8876l-1.4469-5.2877l-5.196,2.343l1.3551,4.3917
		L241.1605,829.8876z M186.6576,306.3848l-3.679-0.5288l-0.4371,4.5751l4.5751,0.4371L186.6576,306.3848z M250.1754,811.7516
		l-3.5858,0.3671l0.459,4.4834l3.5858-0.3671L250.1754,811.7516z M254.9064,840.2575l-0.3673-3.5873l-4.4834,0.459l-0.4371,4.5751
		L254.9064,840.2575z M199.442,289.6753l-4.4834,0.459l-0.4372,4.5736l4.4834-0.459L199.442,289.6753z M265.3681,827.4092
		l0.3453-5.4712l-6.2756,0.6425l0.5508,5.3795L265.3681,827.4092z M206.6851,280.7799l3.5858-0.3671l-0.2754-2.6898l-2.7815-0.6207
		L206.6851,280.7799z M284.3797,827.2737l-3.22,3.9546l-6.1838,1.5386l-0.3453,5.4712l5.563,1.2414l3.1268-4.8505l4.0247-4.9395
		l3.3103-3.0583l0.4371-4.5751l-5.1957,2.3459L284.3797,827.2737z M225.9925,292.3929l0.2551-6.3675l-5.3795,0.5508l0.4589,4.4819
		L225.9925,292.3929z M231.3297,273.7264l3.6777,0.5304l0.5288-3.679l-3.6776-0.529L231.3297,273.7264z M263.7442,519.5471
		l-1.2632-3.4941l-4.4834,0.459l1.3566,4.3915L263.7442,519.5471z M278.1109,527.137l-6.0921,2.4346l1.5387,6.1853l6.1852-1.5402
		L278.1109,527.137z M276.9891,507.3209l-2.069-2.5061l-3.5858,0.3671l1.3549,4.3902L276.9891,507.3209z M309.6874,835.5544
		l-0.459-4.4834l-3.5858,0.3671l-0.4371,4.5751L309.6874,835.5544z M291.1006,521.2767l1.0592-7.3568l-7.1731,0.7344l-0.1617,7.2648
		L291.1006,521.2767z M261.4676,276.0767l6.1838-1.5386l-1.4483-5.2876l-5.378,0.5506L261.4676,276.0767z M321.7593,820.7303
		l-3.7696-1.428l-0.5288,3.679l3.6776,0.529L321.7593,820.7303z M303.9767,505.4633l1.1512-6.4592l-7.265-0.1632l-1.1495,6.4605
		L303.9767,505.4633z M330.2174,832.547l2.7815,0.6207l0.6208-2.78l-2.7818-0.6237L330.2174,832.547z M306.5468,530.567
		l-1.3551-4.3917l-3.4022,2.1608l0.3671,3.5858L306.5468,530.567z M309.6812,490.3842l5.3795-0.5508l0.3453-5.4712l-5.3795,0.5508
		L309.6812,490.3842z M317.9062,517.6268l1.3346-4.6671l-4.667-1.3346l-1.3347,4.667L317.9062,517.6268z M320.3844,541.8329
		l-1.0796-1.7004l-2.598,1.1714l1.1715,2.598L320.3844,541.8329z M295.0499,294.3819l-2.598,1.1715l2.069,2.5061l1.6087-1.9756
		L295.0499,294.3819z M350.3582,816.8938l-3.679-0.5288l-0.6205,2.783l2.7815,0.6207L350.3582,816.8938z M326.2348,475.0997
		l-0.1836-1.7937l-1.9756-1.6087l-0.6222,2.7816L326.2348,475.0997z M361.9916,806.645l-0.459-4.4834l-4.3916,1.3551l0.459,4.4834
		L361.9916,806.645z M333.2606,526.0195l-3.4939,1.2647l1.1714,2.598l2.6898-0.2754L333.2606,526.0195z M321.9472,291.6281
		l-3.5873,0.3673l0.3671,3.5858l3.5873-0.3673L321.9472,291.6281z M348.5451,542.5747l-0.459-4.4834l-4.3916,1.3551l0.459,4.4834
		L348.5451,542.5747z M374.2891,811.7273l-2.7815-0.6207l0.2752,2.6882l2.7815,0.6207L374.2891,811.7273z M324.6091,317.6278
		l-2.6897,0.2754l0.2754,2.6897l2.6897-0.2754L324.6091,317.6278z M335.9669,304.6878l-2.5978,1.1729l1.9771,1.6085l2.6897-0.2754
		L335.9669,304.6878z M339.5251,330.5973l-3.4941,1.2632l1.173,2.5978l2.6882-0.2752L339.5251,330.5973z M348.8674,412.9881
		l-3.6776-0.529l-0.6222,2.7816l2.8734,1.5183L348.8674,412.9881z M342.8295,362.8727l0.7141-1.8841l-2.6897,0.2754l-0.8043,0.9878
		L342.8295,362.8727z M362.4731,554.7383l-1.0797-1.7019l-1.7004,1.0796l1.1715,2.598L362.4731,554.7383z M343.6994,389.0574
		l3.5858-0.3671l-0.459-4.4834l-3.4941,1.2632L343.6994,389.0574z M354.9654,375.2198l4.3916-1.3551l-1.3551-4.3916l-5.2876,1.4483
		L354.9654,375.2198z M360.5006,402.7378l-0.2754-2.6897l-3.5858,0.3671l0.2754,2.6897L360.5006,402.7378z M411.7037,743.5734
		l-0.2754-2.6897l-2.7815-0.6207l0.2754,2.6898L411.7037,743.5734z M416.0154,670.6548l-2.598,1.1715l1.2648,3.4954l1.7003-1.0811
		L416.0154,670.6548z M421.7982,727.1378l-1.1713-2.5965l-1.6101,1.9758l1.1729,2.5978L421.7982,727.1378z M409.6395,590.6768
		l-0.3671-3.5858l-3.5858,0.3671l0.459,4.4834L409.6395,590.6768z M410.2325,614.1719l-1.7921,0.1835l0.2754,2.6898l1.7922-0.1835
		L410.2325,614.1719z M415.7678,641.69l-3.6777-0.5305l-0.437,4.5751l2.7815,0.6207L415.7678,641.69z M420.7463,699.1608
		l-0.1835-1.7922l-2.7816-0.6222l0.2754,2.6897L420.7463,699.1608z M423.0385,606.518l-0.4589-4.4819l-3.4941,1.2632l1.2632,3.4941
		L423.0385,606.518z M429.1683,657.5311l1.425-3.7693l-3.7695-1.4265l-2.4143,2.9651L429.1683,657.5311z M433.806,685.141
		l0.4385-4.5753l-4.5751-0.4371l-0.4371,4.5751L433.806,685.141z"/>
	<path class="st3" d="M542.0256,830.7911l-10.4819,3.7926l-11.7468,0.2972l-10.1369-1.6816l-7.7455-13.7006l-4.4338-16.7591
		l-1.9059-9.7711l0.5086-12.7347l0.5986-11.8415l-0.2037-10.8478l-2.1827-12.4607l1.4963-11.9319l-2.6822-35.0569l0.6906-10.9424
		l-2.0894-11.5633l-0.2973-11.7482l-1.489-23.4019l-0.2972-11.7468l-2.9869-11.4714l1.4963-11.9319l-1.1933-11.655l-0.3875-12.643
		l-1.9991-10.6671l-3.2828-23.2197l1.6801-10.1368l-5.1682-23.9323l-2.4784-24.2076l-1.9976-10.6672l-4.1802-23.1264
		l-0.2054-10.8507l-3.9749-12.2772l-0.2957-11.7469L460.2203,403.4l-5.2396-15.7711l-3.9748-12.2757l-3.6995-9.5875l-2.0894-11.5633
		l-3.9749-12.2772l-5.493-9.4023l-9.3747-20.7836l-4.7791-11.2879l-5.5849-10.2999l-6.3892-9.3121l-6.4809-10.2067l-8.9872-8.1406
		l-11.8605-9.6574l-20.4803-14.2093l-7.6524-12.8062l-1.2852-12.5526l6.1635-10.5958l10.2082-6.481l15.4243,0.2318l17.8607,6.3252
		l7.9992,7.3348l9.8832,8.0474l8.8036,6.347l8.2746,10.0245l15.3763,17.4512l7.4688,11.0125l4.5955,9.4942l4.6873,10.3918
		l5.5849,10.2999l4.7791,11.2879l6.481,10.2082l1.9976,10.6672l3.0773,12.3691l5.2396,15.7711l5.4231,17.5633l1.2852,12.5526
		l1.9974,10.6657l5.971,22.9445l4.6624,36.6667l1.5386,6.1838l2.0457-6.5508l-1.1015-10.7589l0.5101-12.7349l2.9927-23.8623
		l5.8649-22.3424l1.4978-11.932l2.3911-12.022l3.4738-10.3204l0.5988-11.84l3.3818-11.218l10.4399-21.9053l2.4858-11.1262
		l7.0611-10.6877l7.495-15.2639l8.4861-14.457l6.9662-11.5849l5.4524-8.712l9.1255-8.1826l9.0367-9.079l27.8416-20.0635
		l8.3242-7.1936l11.4714-2.9869l9.4039-5.4932l16.6674-5.3298l16.9427-2.6401l23.2183-3.2826l12.7375,0.5069l11.0344,1.5882
		l11.1231,2.4846l12.1169,3.2898l10.5024,5.2661l9.7012,6.2551l7.8141,5.5413l8.8969,7.2429l7.2853,9.2204l12.8701,19.5188
		l2.0894,11.5633l4.6888,10.3917l2.0894,11.5633l3.4882,34.0705l-1.6816,10.1369l-1.4949,11.9317l-4.2781,11.3082l-5.7758,23.2417
		l-6.3456,8.802l-8.3023,16.2521l-8.483,14.4582l-8.1406,8.9872l-9.2203,7.2853l-18.1622,17.2616l-7.52,6.2043l-10.9207,8.3664
		l-9.4038,5.4931l-3.9326,5.8385l11.3097,4.278l19.105,0.7619l9.3309,2.6681l18.4843,3.5434l17.7687,5.4276l11.4933,6.0716
		l11.3097,4.2779l9.6982,6.2554l8.0895,8.231l10.7807,7.9555l8.0007,7.3347l9.0774,9.0354l4.5053,8.5995l8.2732,10.0247
		l4.7805,11.2877l4.594,9.4944l3.9764,12.2771l9.7636,33.4265l1.2852,12.5526l-0.5071,12.7346l-2.0967,23.7706l-1.5897,11.0344
		l-3.3819,11.218l-1.6786,10.1366l-5.9784,12.3893l-8.6476,21.7233l-5.3578,9.6063l-9.0366,9.0804l-7.0609,10.6891l-9.5657,12.7565
		l-14.2296,11.4231l-9.2203,7.2853l-9.3121,6.3892l-11.288,4.7776l-11.196,5.6766l-10.3917,4.6888l-11.4716,2.9855l-10.5754,2.8937
		l-11.563,2.0923l-13.3584,2.2731l-10.7589,1.1015l-11.8388-0.6019l-13.5389,0.4807l-22.0687-3.1764l-12.1137-3.2872l-24.0446-4.788
		l-10.4136-4.3697l-9.6093-5.3575l-9.4228-3.5657l-15.5395-10.1862l-8.5484-12.7129l1.495-11.9303l3.4736-10.3218l5.3577-9.6078
		l14.6216,1.2209l16.7809,4.6232l11.585,6.9662l21.6286,7.7519l11.218,3.3818l12.0223,2.394l11.8385,0.5989l11.9332,1.4947
		l10.851-0.2025l10.756-1.1013l13.3581-2.2761l20.071-7.4908l13.1719-4.065l9.3121-6.3893l21.566-19.421l12.165-13.9296
		l6.3455-8.8035l9.5439-21.8135l5.2657-10.5054l1.5897-11.0345l2.2993-12.918l0.6019-11.8388l-0.1137-9.9546l-2.9884-11.4713
		l-1.1933-11.655l-11.6476-34.1406l-7.2853-9.2203l-6.2974-8.4145l-18.9622-17.0841l-10.5053-5.2658l-8.8969-7.2429l-10.5024-5.2661
		l-25.127-6.4867l-11.218-3.3819l-18.2977-1.7501l-13.6308-0.4169l-29.7721,1.2372l-17.4017-1.8433l-16.7809-4.6233l-7.1935-8.3228
		l-2.9854-11.4716l2.5775-10.2301l10.7371-10.1586l35.8174-21.7871l30.3492-22.1327l32.7432-34.155l5.1741-11.4l7.1497-9.7928
		l5.2659-10.5039l12.9255-33.033l-0.3859-12.6432l0.6906-10.9424l-2.1812-12.4608l-4.7806-11.2878l-2.1811-12.4594l-8.1814-9.1286
		l-7.1047-7.4264l-8.802-6.3456l-11.218-3.3819l-13.6308-0.4169l-17.0345,1.744l-15.1505,2.4581l-10.5754,2.8937l-11.1042,6.5727
		l-10.4835,3.7912l-9.2204,7.2853l-7.517,6.2055l-9.1284,8.1829l-17.7063,21.7438l-8.3942,15.3545l-15.085,29.6292l-5.174,11.4014
		l-2.4858,11.1262l-5.0823,12.2975l-1.6785,10.1381l-3.2901,12.114l-2.394,12.0223l-4.278,11.3097l-2.4828,11.1259l-1.5897,11.0345
		l-0.5989,11.8385l-2.0049,24.6666l-3.3819,11.218l-2.2993,12.9181l1.1934,11.6565l-2.4858,11.1262l-1.7997,35.5158l1.1933,11.655
		l-2.8093,25.6545l1.0098,9.8629l-0.5989,11.8385l1.4906,23.4033l-1.9132,25.5627l1.1015,10.759l-0.6019,11.8388l0.2972,11.7468
		l-1.4031,12.8278l1.9903,46.001l-0.4154,13.6307l-0.3964,22.6895l2.8966,10.5751l-2.7393,17.4935L542.0256,830.7911z
		 M396.8708,235.9415l-0.3671-3.5858l-2.6897,0.2754l0.3671,3.5858L396.8708,235.9415z M413.49,247.8296l-1.1729-2.5978
		l-3.5858,0.3671l1.2632,3.4941L413.49,247.8296z M430.1995,260.614l-0.6425-6.2756l-6.2755,0.6425l0.6425,6.2755L430.1995,260.614z
		 M445.1809,300.7545l-0.5508-5.3795l-6.2755,0.6425l0.5508,5.3795L445.1809,300.7545z M437.1393,275.304l5.2877-1.4468
		l0.3453-5.4712l-5.3795,0.5508L437.1393,275.304z M458.5596,307.5386l-3.5873,0.3673l0.4589,4.4819l3.5873-0.3673
		L458.5596,307.5386z M457.8734,283.1475l-2.7815-0.6207l-0.6207,2.7815l2.7815,0.6207L457.8734,283.1475z M476.0456,345.6103
		l-6.3673-0.2536l1.4468,5.2877l2.069,2.5061l5.4712,0.3453L476.0456,345.6103z M488.0703,463.0595l0.347-5.4699l-4.3916,1.3551
		l-0.2536,6.3673L488.0703,463.0595z M496.9261,567.2451l-0.4385,4.5753l3.679,0.5288l0.4371-4.5751L496.9261,567.2451z
		 M518.6373,761.617l-0.3673-3.5873l-2.6898,0.2754l0.3673,3.5873L518.6373,761.617z M473.0384,325.0817l2.6897-0.2754
		l-1.0797-1.7019l-2.6897,0.2754L473.0384,325.0817z M482.1317,378.5078l-1.4468-5.2877l-3.4941,1.2632l0.5508,5.3795
		L482.1317,378.5078z M485.0689,407.1973l-1.3549-4.3902l-3.5858,0.3671l0.4589,4.4819L485.0689,407.1973z M486.0306,434.2781
		l-0.3671-3.5858l-2.6897,0.2754l0.3671,3.5858L486.0306,434.2781z M497.263,482.0508l4.0244-4.9424l3.4007-2.1606l3.0366-5.7468
		l-7.6305-3.7477l-3.6572,8.5282l-3.127,4.849l-4.8287,5.9302l0.5508,5.3795l6.1838-1.5386L497.263,482.0508z M496.1759,515.6827
		l-0.459-4.4834l-4.5737-0.4372l0.4589,4.4819L496.1759,515.6827z M494.4477,543.0375l3.6777,0.5304l-0.459-4.4833l-3.6776-0.529
		L494.4477,543.0375z M502.7368,597.4528l-0.2754-2.6897l-2.6897,0.2754l0.2754,2.6897L502.7368,597.4528z M510.8146,676.3512
		l-2.598,1.1714l0.3671,3.5859l4.3902-1.355L510.8146,676.3512z M511.1539,706.2122l2.7816,0.6222l0.6207-2.7814l-3.6777-0.5305
		L511.1539,706.2122z M518.665,735.3404l-0.459-4.4834l-4.5736-0.4372l0.5507,5.3795L518.665,735.3404z M510.3118,653.7523
		l-0.3671-3.5858l-3.5858,0.3671l0.3671,3.5858L510.3118,653.7523z M509.237,501.6613l-0.8261-8.0692l-7.9789,1.7224l1.7222,7.9775
		L509.237,501.6613z M502.5551,445.2705l0.3483-5.4715l-6.3704-0.2548l-0.3453,5.4712L502.5551,445.2705z M515.7324,556.2604
		l-1.6304-7.0814l-7.0827,1.6321l2.5294,6.9879L515.7324,556.2604z M505.6204,528.304l5.3795-0.5508l0.4402-4.574l-5.4714-0.3468
		L505.6204,528.304z M516.3239,579.7542l-3.6761-0.5291l-1.3361,4.6672l4.4834-0.459L516.3239,579.7542z M530.0928,714.2394
		l-5.2877,1.4468l0.5507,5.3795l6.1868-1.5389L530.0928,714.2394z M514.8726,609.8l5.4712,0.3453l-0.5507-5.3795l-5.4713-0.3453
		L514.8726,609.8z M526.931,665.6404l-0.6425-6.2756l-6.2756,0.6425l1.5386,6.1838L526.931,665.6404z M526.9936,692.8133
		l0.529-3.6776l-3.768-1.4267l-0.5289,3.6776L526.9936,692.8133z M533.3975,746.5177l-0.3674-3.5888l-4.4804,0.4587l0.3674,3.5888
		L533.3975,746.5177z M499.893,419.2692l-0.3671-3.5858l-3.6761-0.5291l0.4589,4.4819L499.893,419.2692z M522.1069,636.2386
		l-1.2634-3.4955l-2.5964,1.1728l0.2754,2.6898L522.1069,636.2386z M536.313,651.0902l-0.5506-5.378l-5.2877,1.4468l1.4468,5.2877
		L536.313,651.0902z M540.9216,704.9769l0.5319-3.6779l-3.7709-1.4264l-1.3331,4.6669L540.9216,704.9769z M515.9278,487.3867
		l5.196-2.3429l-1.5387-6.1853l-5.1959,2.3444L515.9278,487.3867z M528.6725,567.6182l0.4372-4.5737l-5.3795,0.5508l-0.3453,5.4712
		L528.6725,567.6182z M524.8654,512.7454l-0.7344-7.1731l-5.2877,1.4468l-0.2534,6.3688L524.8654,512.7454z M538.7915,675.2979
		l-0.4589-4.4819l-3.5873,0.3672l0.4589,4.4819L538.7915,675.2979z M522.3315,541.0896l6.0919-2.4362l9.6574-11.8604l0.1617-7.2649
		l-7.0798,1.6318l-2.3211,3.861l-4.8287,5.9302l-1.5197,2.8735L522.3315,541.0896z M532.4141,595.3199l-0.4589-4.4819
		l-3.6792-0.5303l-0.4371,4.5751L532.4141,595.3199z M536.2476,623.9191l0.2535-6.3688l-5.4713-0.3453l-0.2535,6.3673
		L536.2476,623.9191z M535.1436,498.1035l0.1617-7.2649l-7.0799,1.6303l-0.2534,6.3688L535.1436,498.1035z M540.4119,602.6548
		l-0.6207,2.7815l3.6792,0.5303l-0.2754-2.6898L540.4119,602.6548z M542.6924,580.6794l1.2414-5.563l-5.4714-0.3468l-0.3453,5.4713
		L542.6924,580.6794z M536.3513,554.1494l3.5873-0.3672l-0.3673-3.5873l-3.5873,0.3673L536.3513,554.1494z M547.6539,478.7026
		l-5.4712-0.3453l1.4468,5.2877l4.4833-0.459L547.6539,478.7026z M549.6707,383.3702l-1.7922,0.1835l1.0797,1.7019l1.7922-0.1835
		L549.6707,383.3702z M557.2869,342.7285l2.783,0.6206l-0.3671-3.5858l-1.8869-0.7123L557.2869,342.7285z M562.8237,370.2464
		l-0.3671-3.5858l-2.6912,0.2755l0.3671,3.5858L562.8237,370.2464z M578.6768,286.1815l1.7922-0.1835l0.7125-1.8854l-2.7802-0.6223
		L578.6768,286.1815z M592.9792,266.5971l-2.5995,1.1716l1.1744,2.5977l2.5965-1.1713L592.9792,266.5971z M659.3686,773.4794
		l-1.2631-3.4926l-4.4833,0.459l1.358,4.3914L659.3686,773.4794z M615.0742,243.4985l2.6912-0.2755l0.5288-3.679l-3.679-0.5288
		L615.0742,243.4985z M673.3915,786.5403l-0.3672-3.5873l-1.7952,0.1838l-0.6205,2.783L673.3915,786.5403z M687.3458,772.429
		l0.5318-3.6793l-3.5873,0.3672l-1.4249,3.7708L687.3458,772.429z M697.8729,786.7504l3.5873-0.3673l-0.367-3.5844l-3.5873,0.3673
		L697.8729,786.7504z M682.6884,470.3134l0.4372-4.5737l-4.5753-0.4385l-0.5288,3.679L682.6884,470.3134z M714.8375,793.1688
		l-2.5995,1.1716l0.2756,2.6912l2.5991-1.1746L714.8375,793.1688z M659.1459,222.6788l-0.3672-3.5873l-3.5844,0.367l0.3672,3.5873
		L659.1459,222.6788z M696.8074,448.9369l-6.2756,0.6425l0.5508,5.3795l6.2755-0.6425L696.8074,448.9369z M672.1153,207.7613
		l-0.5508-5.3795l-5.4712-0.3453l0.6425,6.2756L672.1153,207.7613z M715.4724,454.2742l-3.4009,2.1591l-7.7034,4.4136l1.6304,7.0799
		l7.2663,0.1615l1.8623-8.343l2.2322-4.7589l5.1959-2.3444l-0.4589-4.4819l-5.2877,1.4468L715.4724,454.2742z M681.5629,220.3837
		l3.5844-0.367l-0.3673-3.5873l-4.4834,0.459L681.5629,220.3837z M678.809,193.4864l4.4805-0.4587l0.5289-3.6776l-4.5723-0.4388
		L678.809,193.4864z M708.6241,440.4787l-0.4589-4.4819l-4.3887,1.3548l0.459,4.4834L708.6241,440.4787z M742.0101,793.1032
		l3.5844-0.367l-0.3669-3.5844l-3.5844,0.367L742.0101,793.1032z M721.6298,479.0106l5.3795-0.5508l-1.4468-5.2877l-4.4834,0.459
		L721.6298,479.0106z M695.6089,207.1685l3.4954-1.2648l-0.4589-4.4819l-4.4834,0.459L695.6089,207.1685z M710.1868,190.2738
		l-1.4469-5.2877l-6.1838,1.5386l2.4348,6.0936L710.1868,190.2738z M738.1835,463.7262l-1.3551-4.3917l-4.3915,1.3566l1.2632,3.4941
		L738.1835,463.7262z M720.6222,203.7006l5.3795-0.5508l0.3453-5.4712l-6.2755,0.6425L720.6222,203.7006z M753.1022,476.6939
		l-1.358-4.3913l-3.4924,1.2645l0.4589,4.4819L753.1022,476.6939z M783.7608,776.146l-0.459-4.4834l-4.4834,0.459l0.459,4.4833
		L783.7608,776.146z M734.0912,211.3808l1.8841,0.7141l0.7154-1.8857l-1.9788-1.6099L734.0912,211.3808z M796.7009,787.5038
		l0.5291-3.6761l-2.783-0.6205l-0.4374,4.5721L796.7009,787.5038z M734.3041,186.8992l0.7125-1.8854l-1.8869-0.7123l0.2754,2.6897
		L734.3041,186.8992z M758.6771,407.2694l0.5289-3.6776l-2.78-0.6209l-0.6237,2.7818L758.6771,407.2694z M767.7427,486.9721
		l-1.2632-3.494l-2.5994,1.1716l0.3672,3.5873L767.7427,486.9721z M796.4518,758.5391l-4.5751-0.437l0.459,4.4833l3.6791,0.5288
		L796.4518,758.5391z M753.7951,200.3043l1.0579-7.3551l-7.0799,1.6303l-1.0577,7.3566L753.7951,200.3043z M811.646,774.1965
		l0.4371-4.5751l-4.5751-0.4371l-0.4371,4.5751L811.646,774.1965z M766.7353,211.6636l-0.6426-6.277l-5.1959,2.3444l1.3551,4.3916
		L766.7353,211.6636z M808.6598,497.2781l-1.5386-6.1838l-3.9544-3.2185l-3.0554-3.3106l-3.8627-2.3225l-5.4713-0.3468
		l3.3339,6.0015l2.0675,2.5063l3.8625,2.321l2.9636,2.4145L808.6598,497.2781z M782.5502,224.5395l0.3453-5.4712l-5.4713-0.3453
		l-0.2535,6.3673L782.5502,224.5395z M779.7047,196.7461l-3.6791-0.5288l-0.6207,2.7815l2.78,0.6208L779.7047,196.7461z
		 M798.3865,361.5295l-1.4467-5.2863l-5.4714-0.3468l0.6425,6.2756L798.3865,361.5295z M837.0309,738.9824l-6.2756,0.6425
		l2.343,5.196l5.4715,0.3483L837.0309,738.9824z M795.4492,332.84l-0.5507-5.3795l-4.3917,1.3551l-0.3453,5.4712L795.4492,332.84z
		 M808.6909,320.6126l-1.6303-7.0799l-6.1838,1.5386l1.5386,6.1838L808.6909,320.6126z M848.6381,755.0101l0.5288-3.679
		l-3.7708-1.4249l0.367,3.5844L848.6381,755.0101z M796.4489,262.9785l4.4833-0.459l0.529-3.6776l-5.3795,0.5508L796.4489,262.9785z
		 M827.1631,509.8803l-0.459-4.4834l-5.3795,0.5508l0.5508,5.3795L827.1631,509.8803z M849.3769,726.8497l0.4371-4.5751
		l-5.4712-0.3453l-0.3453,5.4712L849.3769,726.8497z M797.9031,232.9324l-3.5873,0.3673l0.3672,3.5873l3.5873-0.3673
		L797.9031,232.9324z M809.9979,342.2222l-4.4833,0.459l0.459,4.4834l3.5873-0.3673L809.9979,342.2222z M812.2901,249.5795
		l-0.459-4.4834l-4.4805,0.4587l0.459,4.4834L812.2901,249.5795z M860.8295,714.8054l-0.551-5.3809l-5.3795,0.5508l0.6424,6.274
		L860.8295,714.8054z M861.6043,740.0914l-0.2752-2.6882l-2.7803-0.6238l-0.6205,2.783L861.6043,740.0914z M815.7593,274.5911
		l-0.459-4.4834l-4.3915,1.3566l0.4589,4.4819L815.7593,274.5911z M819.4717,328.5681l-1.1715-2.598l-1.7003,1.0811l0.2754,2.6897
		L819.4717,328.5681z M838.9316,518.6401l-2.6882,0.2752l1.1714,2.598l2.6883-0.2753L838.9316,518.6401z M857.0895,536.7121
		l-1.5386-6.1838l-6.0002,3.3322l-2.4158,2.9653l-2.3212,3.8611l-2.2322,4.7589l1.8869,0.7123l5.1041-3.2405L857.0895,536.7121z
		 M873.9575,692.6234l-5.3795,0.5508l0.5508,5.3795l5.4712,0.3453L873.9575,692.6234z M874.2065,721.5881l-2.5995,1.1716
		l1.1716,2.5995l2.5995-1.1716L874.2065,721.5881z M860.3723,559.9318l-0.3673-3.5873l-3.5843,0.367l0.3672,3.5873
		L860.3723,559.9318z M878.5663,631.4517l0.1617-7.2648l-6.0002,3.3322l-2.85,7.5401l-0.3483,5.4715l2.4158-2.9653
		L878.5663,631.4517z M876.0106,650.7388l0.5507,5.3795l5.563,1.2414l-0.6425-6.2755L876.0106,650.7388z M866.2617,546.6447
		l5.3795-0.5508l0.3453-5.4712l-5.3795,0.5508L866.2617,546.6447z M873.9359,568.5079l-5.2875,1.4483l0.5507,5.3795l4.4805-0.4587
		L873.9359,568.5079z M886.5815,683.1772l-0.5507-5.3795l-6.2756,0.6425l0.5508,5.3795L886.5815,683.1772z M878.2283,601.5891
		l0.2536-6.3673l-6.2756,0.6425l0.5508,5.3795L878.2283,601.5891z M898.5601,667.4556l0.1617-7.2648l-5.2877,1.4468l-2.0456,6.5522
		L898.5601,667.4556z M881.1775,559.6127l5.4714,0.3468l0.5288-3.6791l-5.5629-1.2414L881.1775,559.6127z M889.4025,586.8553
		l0.3453-5.4712l-5.2876,1.4484l-0.3453,5.4712L889.4025,586.8553z M893.0524,613.6609l-1.4468-5.2877l-5.2876,1.4484l0.5506,5.378
		L893.0524,613.6609z M895.7145,639.6622l-0.6426-6.277l-6.2756,0.6425l0.6427,6.277L895.7145,639.6622z"/>
</g>
</svg>
