<?xml version="1.0" encoding="utf-8"?>
<!-- Generator: Adobe Illustrator 27.2.0, SVG Export Plug-In . SVG Version: 6.00 Build 0)  -->
<svg version="1.1" id="Layer_1" xmlns="http://www.w3.org/2000/svg" xmlns:xlink="http://www.w3.org/1999/xlink" x="0px" y="0px"
	 viewBox="0 0 800 161.3" style="enable-background:new 0 0 800 161.3;" xml:space="preserve">
<style type="text/css">
	.st0{fill-rule:evenodd;clip-rule:evenodd;fill:#7F54B3;}
	.st1{fill-rule:evenodd;clip-rule:evenodd;fill:#FFFFFF;}
</style>
<path class="st0" d="M245.7,0H25.2C11.2,0-0.1,11.4,0,25.3v84.2c0,14,11.3,25.3,25.3,25.3h104.5l47.8,26.6l-10.9-26.6h79.1
	c14,0,25.3-11.3,25.3-25.3V25.3C271,11.3,259.7,0,245.7,0z M20.5,19.5c-3.1,0.2-5.4,1.3-7,3.4c-1.6,2-2.1,4.5-1.8,7.4
	c6.5,41.5,12.6,69.6,18.3,84.1c2.2,5.3,4.8,7.9,7.8,7.6c4.7-0.3,10.2-6.8,16.7-19.3c3.4-7.1,8.8-17.7,16-31.9
	c6,20.9,14.2,36.7,24.5,47.2c2.9,3,5.9,4.3,8.8,4.1c2.5-0.2,4.5-1.6,5.9-4c1.1-2.1,1.6-4.5,1.3-7.3c-0.7-10.1,0.3-24.2,3.1-42.2
	c2.9-18.6,6.4-32,10.7-40c0.9-1.7,1.2-3.3,1.1-5.3c-0.2-2.5-1.3-4.7-3.4-6.3s-4.4-2.4-7-2.2c-3.2,0.2-5.7,1.8-7.3,4.9
	c-6.9,12.5-11.7,32.8-14.6,60.9C89.3,70,85.8,57.5,83,42.8c-1.2-6.5-4.2-9.6-9.1-9.3c-3.3,0.2-6.1,2.4-8.3,6.6L41.3,86.3
	c-4-16.1-7.8-35.7-11.2-58.8C29.4,21.7,26.1,19.1,20.5,19.5z M234,27.5c7.9,1.7,13.7,5.9,17.7,12.9c3.5,6,5.3,13.2,5.3,21.8
	c0,11.4-2.9,21.8-8.6,31.4c-6.6,11.1-15.3,16.6-26,16.6c-1.9,0-3.9-0.2-6-0.7c-7.9-1.7-13.7-5.9-17.7-12.9
	c-3.5-6.1-5.3-13.4-5.3-21.9c0-11.4,2.9-21.8,8.6-31.2c6.8-11.1,15.4-16.6,26-16.6C229.9,26.8,231.9,27,234,27.5z M229.3,87.4
	c4.1-3.7,6.9-9.1,8.4-16.4c0.4-2.5,0.8-5.3,0.8-8.2c0-3.2-0.7-6.6-2-10.1c-1.7-4.3-3.9-6.6-6.5-7.2c-4-0.8-7.9,1.4-11.5,6.9
	c-3,4.2-4.9,8.6-5.9,13.2c-0.6,2.5-0.8,5.3-0.8,8.1c0,3.2,0.7,6.6,2,10.1c1.7,4.3,3.9,6.6,6.5,7.2C223.1,91.5,226.1,90.3,229.3,87.4
	z M182.2,40.3c-4-7-10-11.2-17.7-12.9c-2.1-0.4-4.1-0.7-6-0.7c-10.6,0-19.3,5.5-26,16.6c-5.8,9.4-8.6,19.8-8.6,31.2
	c0,8.5,1.8,15.8,5.3,21.9c4,7,9.9,11.2,17.7,12.9c2.1,0.4,4.1,0.7,6,0.7c10.7,0,19.4-5.5,26-16.6c5.8-9.5,8.6-19.9,8.6-31.4
	C187.6,53.5,185.8,46.3,182.2,40.3z M168.3,71c-1.6,7.3-4.3,12.7-8.4,16.4c-3.2,2.9-6.2,4.1-9,3.5c-2.7-0.6-4.9-2.9-6.5-7.2
	c-1.3-3.4-2-6.9-2-10.1c0-2.8,0.2-5.5,0.8-8.1c1-4.5,2.9-9,5.9-13.2c3.7-5.4,7.5-7.6,11.5-6.9c2.7,0.6,4.9,2.9,6.5,7.2
	c1.3,3.4,2,6.9,2,10.1C169.1,65.7,168.8,68.5,168.3,71z"/>
<path class="st1" d="M299,39.3c-7.4,7.3-11.1,16.6-11.1,27.9c0,12.1,3.7,21.9,11,29.4c7.3,7.4,16.8,11.2,28.7,11.2
	c3.4,0,7.3-0.6,11.5-1.8V88.1c-3.9,1.1-7.2,1.7-10.1,1.7c-5.9,0-10.5-2-14.1-5.9c-3.5-4-5.3-9.3-5.3-16.1c0-6.3,1.8-11.5,5.2-15.5
	c3.5-4.1,7.9-6.1,13.2-6.1c3.4,0,7.1,0.6,11.1,1.7V29.9c-3.7-1-7.8-1.4-12.1-1.4C315.7,28.4,306.4,32,299,39.3z M375.9,28.4
	c-10.2,0-18.2,3.4-23.9,10.2c-5.8,6.8-8.5,16.3-8.5,28.5c0,13.2,2.9,23.3,8.5,30.2c5.7,7,14,10.5,24.8,10.5
	c10.5,0,18.6-3.5,24.3-10.5c5.7-7,8.5-16.8,8.5-29.5c0-12.6-2.9-22.4-8.6-29.2C395.1,31.8,386.8,28.4,375.9,28.4z M384.7,86
	c-2,3.1-5,4.7-8.8,4.7c-3.5,0-6.2-1.6-8.1-4.7c-1.9-3.1-2.8-9.3-2.8-18.7c0-14.5,3.7-21.7,11.1-21.7c7.8,0,11.7,7.3,11.7,22
	C387.8,76.7,386.7,82.9,384.7,86z M464.3,30.5l-4,17c-1,4.3-2,8.8-2.9,13.3l-2.2,11.7c-2.1-11.7-5-25.7-8.6-42h-25.7l-9.6,75.4h19.3
	l5.2-52l13.2,52h13.7l12.6-51.8l5.4,51.8h20.2l-10.2-75.4H464.3z M556.6,30.5l-4,17c-1,4.3-2,8.8-2.9,13.3l-2.2,11.7
	c-2.1-11.7-5-25.7-8.6-42h-25.7l-9.6,75.4h19.3l5.2-52l13.2,52h13.7l12.5-51.8l5.4,51.8H593l-10.2-75.4H556.6z M619.3,76.1h18.1
	V60.5h-18.1V46.6h20.8V30.6h-41.2V106h41.3V90h-20.9V76.1z M697.6,64.1c2.1-3.4,3.2-7,3.2-10.6c0-7.1-2.8-12.7-8.3-16.8
	c-5.5-4.1-13.2-6.2-22.7-6.2h-23.7v75.4h20.4V71.6h0.3l16.5,34.3h21.5l-16.3-34C692.4,70.1,695.5,67.6,697.6,64.1z M666.4,62.9V45
	c4.9,0.1,8.3,0.9,10.4,2.4c2.1,1.6,3.1,4,3.1,7.5C679.9,60.2,675.4,62.8,666.4,62.9z M712.8,39.3c-7.4,7.3-11.1,16.6-11.1,27.9
	c0,12.1,3.7,21.9,11,29.4c7.3,7.4,16.8,11.2,28.7,11.2c3.4,0,7.3-0.6,11.5-1.8V88.1c-3.9,1.1-7.2,1.7-10.1,1.7
	c-5.9,0-10.5-2-14.1-5.9c-3.5-4-5.3-9.3-5.3-16.1c0-6.3,1.8-11.5,5.2-15.5c3.5-4.1,7.9-6.1,13.2-6.1c3.4,0,7.1,0.6,11.1,1.7V29.9
	c-3.7-1-7.8-1.4-12.1-1.4C729.7,28.4,720.2,32,712.8,39.3z M779,89.7V76H797V60.4H779V46.5h20.9V30.5h-41.2v75.4H800V89.8h-21V89.7z
	"/>
</svg>
