<?xml version="1.0" encoding="utf-8"?>
<!-- Generator: Adobe Illustrator 27.2.0, SVG Export Plug-In . SVG Version: 6.00 Build 0)  -->
<svg version="1.1" id="Layer_1" xmlns="http://www.w3.org/2000/svg" xmlns:xlink="http://www.w3.org/1999/xlink" x="0px" y="0px"
	 viewBox="0 0 460 460" style="enable-background:new 0 0 460 460;" xml:space="preserve">
<style type="text/css">
	.st0{opacity:0.2;fill:#3A2660;}
	.st1{opacity:0.5;fill:#3A2660;}
	.st2{fill:#3A2660;}
	.st3{fill:#E65CAF;}
</style>
<circle class="st0" cx="230" cy="230" r="222"/>
<circle class="st1" cx="230" cy="230" r="169.7"/>
<circle class="st1" cx="230" cy="230" r="122.7"/>
<circle class="st2" cx="230" cy="230" r="74.7"/>
<g>
	<path class="st3" d="M178.4,243.4c0.2-8.1,2.6-17.3,7.1-25.9c6.6-12.7,16.3-22.6,28.3-30c11.1-6.9,23.2-10.4,36.4-8.7
		c3.4,0.4,6.8,1.6,10.1,2.7c2.8,1,4.3,4.4,3,7.4c-2.3,5.4-4.8,10.8-7.5,16c-4,7.8-10.4,13.2-18,17.4c-7,3.9-14.1,7.4-21,11.4
		c-8.4,4.9-14.7,11.9-19.5,20.3c-2,3.5-3.9,7.1-5.8,10.6c-0.3,0.6-0.6,1.2-1,1.7c-1.7,2.4-4.6,2.3-6.1-0.2
		C180.4,259.7,178.5,252.6,178.4,243.4z"/>
	<path class="st3" d="M281.6,214.7c0.1,9.9-2.4,19.2-7.1,27.8c-7.7,14.2-18.9,25.1-33.2,32.6c-8.2,4.3-17,6.6-26.3,6.5
		c-5,0-9.9-1-14.6-2.8c-3.2-1.2-4.7-4.2-3.5-7.4c1-2.6,2.2-5.1,3.6-7.5c2.6-4.8,5-9.7,8.7-13.8c5.2-5.8,11.3-10.3,18.2-13.8
		c4.6-2.3,9.3-4.6,13.8-7.2c9.5-5.4,17.4-12.5,22.2-22.5c1.8-3.6,3.6-7.2,5.4-10.8c0.1-0.3,0.3-0.6,0.4-0.9c0.7-1.3,1.7-2.3,3.3-2.3
		c1.6,0,2.6,0.9,3.4,2.2C279.7,200.9,281.5,207.5,281.6,214.7z"/>
</g>
</svg>
