<?xml version="1.0" encoding="UTF-8"?> <svg xmlns="http://www.w3.org/2000/svg" xml:space="preserve" x="0" y="0" version="1.1" viewBox="0 0 1177 266.3"><path d="M263.2 55.9v107.2c0 6.9-1.1 13.2-3.4 18.9-2.2 5.7-5.5 10.5-9.8 14.5-4.3 4-9.5 7.1-15.7 9.3-6.1 2.2-13.1 3.4-20.9 3.4-7.5 0-14.1-1-19.8-3-5.7-2-10.6-4.9-14.7-8.6-4.1-3.7-7.5-8.2-10.1-13.4-2.6-5.2-4.4-11-5.4-17.3l30.7-6.1c2.4 13.1 8.7 19.7 18.8 19.7 4.8 0 8.8-1.5 12.2-4.5 3.4-3 5.1-7.8 5.1-14.3V82.3h-45.8V55.9h78.8zm30.7-9.1h32v65.5h1.1c1.6-6.3 5.2-11.5 10.9-15.6 5.7-4 12.2-6.1 19.6-6.1 14.4 0 25.3 5 32.6 15.1 7.4 10.1 11 24.8 11 44.1s-3.7 34.1-11 44.2-18.2 15.2-32.6 15.2c-3.8 0-7.3-.5-10.6-1.6s-6.3-2.6-9-4.5-4.9-4.2-6.8-6.9c-1.9-2.7-3.2-5.5-4.1-8.5h-1.1v19h-32V46.8zm53 136.7c6.1 0 11.1-2.1 15-6.4 4-4.2 5.9-10 5.9-17.2v-19.7c0-7.2-2-12.9-5.9-17.2-4-4.2-9-6.4-15-6.4-6.1 0-11.1 1.5-15 4.4-4 3-5.9 7-5.9 12.2v33.5c0 5.2 2 9.3 5.9 12.2 3.9 3.1 8.9 4.6 15 4.6zm97.9 22.8c-6.4 0-9.6-3.1-9.6-9.4V99.6h-20.6v-6.9h14.8c2.5 0 4.2-.5 5-1.6.8-1 1.2-2.8 1.2-5.4V60.4h7.4v32.2h26.6v6.9H443v99.8h24.8v6.9h-23zm94.4 2.7c-14.9 0-26.7-5.1-35.2-15.2-8.6-10.1-12.9-24.9-12.9-44.3 0-19.5 4.3-34.3 12.9-44.4C512.5 95 524.3 90 539.2 90c14.9 0 26.7 5 35.2 15.1 8.6 10.1 12.9 24.9 12.9 44.4 0 19.4-4.3 34.2-12.9 44.3-8.6 10.1-20.3 15.2-35.2 15.2zm0-7c12.7 0 22.4-4.1 29.3-12.4 6.9-8.3 10.3-19.7 10.3-34.1v-12.1c0-14.6-3.4-26-10.3-34.2-6.9-8.2-16.6-12.3-29.3-12.3s-22.5 4.1-29.3 12.3c-6.9 8.2-10.3 19.6-10.3 34.2v12.1c0 14.5 3.4 25.8 10.3 34.1 6.8 8.3 16.6 12.4 29.3 12.4zm83.2 4.3V92.6h7.8v17.5h.7c2.2-5.5 6.2-10.3 11.7-14.2 5.6-4 13.3-5.9 23.2-5.9 12.5 0 22.1 3.7 28.8 11.1 6.6 7.4 10 18.2 10 32.3v72.9h-7.8v-71.6c0-13.1-2.8-22.7-8.4-28.8-5.6-6-13.7-9.1-24.3-9.1-4.3 0-8.5.6-12.6 1.8-4.1 1.2-7.7 3-10.9 5.4-3.1 2.4-5.6 5.4-7.5 9-1.9 3.6-2.8 7.8-2.8 12.5v80.8h-7.9zm164.2 2.7c-15.1 0-27-5.1-35.7-15.2-8.7-10.1-13.1-24.9-13.1-44.3 0-19.2 4.3-34 12.8-44.2 8.5-10.2 20.2-15.3 35.1-15.3 7 0 13.4 1.3 19.1 4 5.7 2.7 10.7 6.5 14.8 11.4 4.1 4.9 7.3 10.9 9.5 17.8s3.4 14.7 3.4 23.2v3.6h-86.4v6c0 7 .9 13.4 2.7 19 1.8 5.7 4.4 10.5 7.9 14.5s7.8 7.1 12.8 9.3c5 2.2 10.7 3.2 17.1 3.2 18 0 30.5-8.6 37.4-26l6 3.4c-3.4 9-8.8 16.1-16.1 21.5-7.3 5.4-16.4 8.1-27.3 8.1zm-.9-112.1c-6.3 0-11.8 1.1-16.7 3.2-4.8 2.2-9 5.3-12.4 9.3-3.4 4-6 8.9-7.8 14.5-1.8 5.7-2.7 11.9-2.7 18.8v.9H824v-1.3c0-6.9-.9-13.1-2.8-18.7s-4.5-10.4-7.8-14.3c-3.4-4-7.4-7-12.1-9.2-4.7-2.1-9.9-3.2-15.6-3.2zm81.9 109.4V92.6h7.8v19.9h.9c2.4-5.4 6.3-10 11.6-14 5.4-4 13.1-5.9 23.3-5.9h8.5v7.4h-9.8c-4.6 0-9 .6-13.2 1.8-4.2 1.2-7.8 3-11 5.4-3.1 2.4-5.6 5.3-7.5 8.8-1.9 3.5-2.8 7.6-2.8 12.2v78.1h-7.8z" fill="#ffd175"></path><path d="M21.1 139.1V131l105-62.8v9.3l-96.2 57.2v.7l96.2 57.2v9.3l-105-62.8zm930.6 106.2 59.9-218.6h7.9l-59.9 218.6h-7.9zm99.2-52.7 96.2-57.2v-.7l-96.2-57.2v-9.3l105 62.8v8.1l-105 62.8v-9.3z" fill="#55c7e4"></path></svg> 