<?xml version="1.0" encoding="utf-8"?>
<!-- Generator: Adobe Illustrator 27.2.0, SVG Export Plug-In . SVG Version: 6.00 Build 0)  -->
<svg version="1.1" id="Layer_1" xmlns="http://www.w3.org/2000/svg" xmlns:xlink="http://www.w3.org/1999/xlink" x="0px" y="0px"
	 viewBox="0 0 384 287.8" style="enable-background:new 0 0 384 287.8;" xml:space="preserve">
<style type="text/css">
	.st0{fill:#FFFFFF;}
</style>
<path class="st0" d="M384,80.9c0,58.8,0,117.5,0,176.3c-0.1,0.2-0.4,0.4-0.4,0.6c-5.1,20.3-17.4,30-38.4,30c-52.4,0-104.7,0-157.1,0
	c-50.2,0-100.5,0-150.7,0c-10.2,0-19.1-3-26.6-10.1c-5.9-5.6-8.9-12.8-10.7-20.6c0-58.8,0-117.5,0-176.3c0.6,0.2,1.2,0.4,1.7,0.7
	c52.1,34.7,104.1,69.4,156.2,104.2c22.4,14.9,45.9,14.9,68.3,0c51.2-34.1,102.5-68.3,153.7-102.5C381.2,82.4,382.6,81.7,384,80.9z"
	/>
<path class="st0" d="M0,40.4c0-3.3,0-6.5,0-9.8c0.6-2.1,1.2-4.3,1.9-6.4C7,9,20.3,0,37.7,0c102.9,0,205.7,0,308.6,0
	c1.1,0,2.3,0,3.4,0.1c15.3,0.8,27.8,10.1,32.5,24.2c0.7,2.1,1.3,4.3,1.9,6.4c0,3.3,0,6.5,0,9.8c-2.4,9.9-7.3,18.1-16,23.9
	c-51.8,34.4-103.5,69-155.3,103.4c-13.8,9.2-27.9,9-41.7-0.2C119.3,133.1,67.7,98.6,16.1,64.2C7.9,58.7,2.5,51.4,0.6,41.7
	C0.5,41.2,0.2,40.8,0,40.4z"/>
</svg>
