<?xml version="1.0" encoding="utf-8"?>
<!-- Generator: Adobe Illustrator 27.2.0, SVG Export Plug-In . SVG Version: 6.00 Build 0)  -->
<svg version="1.1" id="Layer_1" xmlns="http://www.w3.org/2000/svg" xmlns:xlink="http://www.w3.org/1999/xlink" x="0px" y="0px"
	 viewBox="0 0 561.3 381.2" style="enable-background:new 0 0 561.3 381.2;" xml:space="preserve">
<style type="text/css">
	.st0{fill:none;}
	.st1{fill:#5D87A1;}
	.st2{fill:#F8981D;}
	.st3{fill:none;stroke:#F8981D;stroke-width:0;stroke-linecap:round;stroke-linejoin:round;}
</style>
<g>
	<path class="st0" d="M384.3,231.9c-19.8,0-29.7,16.3-29.7,48.9c0,18.7,2.6,32.2,7.9,40.6l0,0c4.9,7.8,12.5,11.7,22.8,11.7
		c19.8,0,29.7-16.4,29.7-49.3c0-18.4-2.6-31.8-7.9-40.3C402.3,235.8,394.7,231.9,384.3,231.9z"/>
	<path class="st1" d="M99.3,217.9L67.9,313h-0.2l-31.2-95.1H9.6C4.5,258.1,1.3,301.3,0,347.3h19.7c0.6-37.8,2.2-72.2,4.6-103.1h0.2
		l32.8,103.1h16.5l33-103.1h0.2c3.4,32.2,5.6,66.6,6.3,103.1h21.7c-1-39.1-4.3-82.2-10-129.4H99.3z"/>
	<path class="st1" d="M188.8,333.3c0.6-5-1-13.7-4.8-26.3L167,251.8h-21.3l23.8,73.8c3.6,11.1,5.4,18.5,5.4,22
		c0,5.2-2.3,10-6.9,14.2c-3.8,3.5-8.9,5.2-15.2,5.2c-3.4,0-6.4-0.2-9-0.6V378c5.2,2.1,9.6,3.2,13.2,3.2c13.4,0,25.7-8.4,37-25.1
		c14.4-21.7,26.1-56.5,34.9-104.3v0h-20.5C204.7,281.2,198.1,308.4,188.8,333.3z"/>
	<path class="st2" d="M421.7,332.9c10.1-11.9,15.2-29.4,15.2-52.7c0-42.8-16.8-64.2-50.4-64.2c-16.5,0-29.3,5.4-38.5,16.3
		c-10.1,11.9-15.1,29.4-15.1,52.5c0,22.7,4.5,39.4,13.4,50c8.2,9.6,20.5,14.4,37,14.4c6.2,0,11.8-0.8,16.9-2.3l31,18l8.4-14.5
		l-23.8-11.7C417.9,336.9,419.9,335.1,421.7,332.9z M385.3,333.1c-10.4,0-18-3.9-22.8-11.7l0,0c-5.2-8.4-7.9-22-7.9-40.6
		c0-32.6,9.9-48.9,29.7-48.9c10.4,0,18,3.9,22.8,11.7c5.2,8.4,7.9,21.9,7.9,40.3C415,316.7,405.1,333.1,385.3,333.1z"/>
	<path class="st2" d="M308.6,284.1c0,0-18.6-10.6-27.8-15.6c-10.1-5.6-15.6-12.3-15.6-19.9c0-5,2.2-9.1,5.8-12.3
		c3.6-3.2,8.7-4.8,15.3-4.8c8.2,0,16.5,1.8,24.9,5.4l5-11.1c-9.8-6.4-20.8-9.6-32.8-9.6c-11.6,0-21.1,3.2-28.5,9.7
		c-7.3,6.4-11,14.9-11,25.4c0,12.7,4.9,20.4,14.8,27.5c0,0,18.1,10.4,27.2,15.4c9.8,5.5,15.2,12.1,15.2,19.8c0,6.1-2.6,10.9-7,14.4
		c-4.4,3.4-10.5,5.2-18.3,5.2c-8.3,0-17.6-2.5-27.8-7.7l-5.6,11.1c11.9,8,24.1,12.1,36.8,12.1c13.5,0,24.3-3.5,32.4-10.5
		c8-7.1,12.1-16.1,12.1-27C323.7,298.8,318.7,291.2,308.6,284.1z"/>
	<polygon class="st2" points="476.3,217.9 455.6,217.9 455.6,347.3 517.2,347.3 517.2,331.3 476.3,331.3 	"/>
	<path class="st1" d="M383.7,38.7L383.7,38.7c-2.2,0-4.3,0.2-6.4,0.8v0.3h0.3c1.3,2.5,3.4,4.2,5,6.4c1.3,2.5,2.4,5,3.6,7.5l0.3-0.3
		c2.2-1.6,3.3-4.1,3.3-7.8c-1-1.1-1.1-2.2-1.9-3.3C387,40.7,384.9,39.9,383.7,38.7z"/>
	<path class="st1" d="M558.8,220.2l-4.7-4.5c-4.5-6.1-10.2-11.4-16.3-15.8c-5-3.4-16-8.1-18-13.9l-0.3-0.3c3.4-0.3,7.5-1.6,10.8-2.5
		c5.3-1.4,10.2-1.1,15.6-2.5c2.5-0.6,5-1.4,7.5-2.2V177c-2.8-2.8-4.8-6.6-7.8-9.2c-8-6.9-16.7-13.6-25.8-19.2
		c-4.9-3.1-11.1-5.2-16.3-7.8c-1.9-0.9-5-1.4-6.1-3c-2.8-3.4-4.4-8-6.4-12c-4.5-8.6-8.9-18.1-12.8-27.2c-2.8-6.1-4.5-12.2-8-17.8
		c-16.1-26.6-33.6-42.7-60.5-58.5c-5.8-3.3-12.7-4.7-20-6.4l-11.7-0.6c-2.5-1.1-5-4.1-7.2-5.5C361.9,4.1,339-8.1,332.4,8
		c-4.2,10.2,6.3,20.2,9.9,25.3c2.7,3.6,6.1,7.7,8,11.7c1.1,2.7,1.4,5.5,2.5,8.3c2.5,6.9,4.8,14.5,8.1,21c1.7,3.3,3.6,6.7,5.8,9.7
		c1.3,1.7,3.4,2.5,3.9,5.3c-2.2,3.1-2.4,7.8-3.6,11.7c-5.6,17.7-3.4,39.5,4.5,52.5c2.5,3.9,8.4,12.5,16.4,9.2
		c7-2.8,5.5-11.7,7.5-19.5c0.5-1.9,0.2-3.1,1.1-4.4v0.3c2.2,4.4,4.4,8.6,6.4,13c4.9,7.7,13.3,15.6,20.3,20.9
		c3.7,2.8,6.7,7.7,11.4,9.4V182h-0.3c-1-1.4-2.3-2-3.6-3.1c-2.8-2.8-5.9-6.3-8.1-9.4c-6.6-8.8-12.4-18.5-17.5-28.5
		c-2.5-4.9-4.7-10.2-6.7-15c-0.9-1.9-0.9-4.7-2.5-5.6c-2.4,3.4-5.8,6.4-7.5,10.6c-3,6.7-3.3,15-4.4,23.6l-0.6,0.3
		c-5-1.3-6.7-6.4-8.6-10.8c-4.7-11.1-5.5-28.9-1.4-41.8c1.1-3.3,5.8-13.6,3.9-16.7c-0.9-3-4.1-4.7-5.8-7.1c-2-3-4.2-6.7-5.6-10
		c-3.7-8.8-5.6-18.4-9.7-27.2c-1.9-4.1-5.2-8.3-7.8-12c-3-4.2-6.3-7.2-8.6-12.2c-0.8-1.7-1.9-4.5-0.6-6.4c0.3-1.3,0.9-1.7,2.2-2
		c2-1.7,7.8,0.5,9.8,1.4c5.8,2.3,10.6,4.5,15.5,7.8c2.2,1.6,4.5,4.5,7.3,5.3h3.3c5,1.1,10.6,0.3,15.3,1.7
		c8.3,2.7,15.8,6.6,22.5,10.8c20.5,13,37.4,31.4,48.8,53.5c1.9,3.6,2.7,6.9,4.4,10.6c3.3,7.7,7.4,15.5,10.6,23
		c3.3,7.3,6.4,14.8,11.1,20.9c2.3,3.3,11.7,5,16,6.7c3.1,1.4,8,2.6,10.8,4.4c5.3,3.3,10.6,7,15.6,10.6c2.5,1.9,10.3,5.8,10.8,8.9
		c-12.5-0.3-22.2,0.9-30.3,4.4c-2.3,0.9-6.1,0.9-6.4,3.9c1.3,1.3,1.4,3.3,2.5,5c1.9,3.1,5.1,7.3,8.1,9.5c3.3,2.5,6.6,5,10,7.2
		c6.1,3.8,13,6,18.9,9.7c3.5,2.2,6.9,5,10.3,7.3c1.7,1.3,2.8,3.3,5,4.1v-0.5C560.2,223.8,559.9,221.7,558.8,220.2z"/>
	<line class="st3" x1="531.9" y1="347.3" x2="531.9" y2="347.3"/>
	<line class="st3" x1="558" y1="347.3" x2="558" y2="347.3"/>
	<polygon class="st2" points="527.3,334.1 531.9,334.1 531.9,347.3 535.4,347.3 535.4,334.1 539.9,334.1 539.9,331.4 527.3,331.4 	
		"/>
	<polygon class="st2" points="552.5,342.2 548.2,331.4 543.5,331.4 543.5,347.3 546.5,347.3 546.5,335.2 546.7,335.2 551.2,347.3 
		553.5,347.3 558,335.2 558,347.3 561.3,347.3 561.3,331.4 556.4,331.4 	"/>
</g>
</svg>
