<?xml version="1.0" encoding="utf-8"?>
<!-- Generator: Adobe Illustrator 27.2.0, SVG Export Plug-In . SVG Version: 6.00 Build 0)  -->
<svg version="1.1" id="Layer_1" xmlns="http://www.w3.org/2000/svg" xmlns:xlink="http://www.w3.org/1999/xlink" x="0px" y="0px"
	 viewBox="0 0 101.4 33.5" style="enable-background:new 0 0 101.4 33.5;" xml:space="preserve">
<style type="text/css">
	.st0{fill:#FFFFFF;}
	.st1{fill:#F48120;}
	.st2{fill:#FAAD3F;}
</style>
<path class="st0" d="M94.7,10.6l-5.6-1.3l-1-0.4L62.4,9.1v12.4l32.3,0.1V10.6z"/>
<path class="st1" d="M84.2,20.4c0.3-0.9,0.2-1.8-0.3-2.6c-0.5-0.6-1.3-1-2.1-1.1l-17.4-0.2c-0.1,0-0.2-0.1-0.3-0.1
	c-0.1-0.1-0.1-0.2,0-0.3c0,0,0,0,0,0c0.1-0.2,0.2-0.3,0.4-0.3L82,15.6c2.3-0.3,4.2-1.7,5.1-3.8l1-2.6c0-0.1,0.1-0.2,0-0.3
	c-1.4-6.1-7.5-10-13.6-8.6c-3.9,0.9-7,3.7-8.3,7.4c-1-0.7-2.3-1.1-3.6-1C60.2,7,58.3,8.9,58,11.3c-0.1,0.6,0,1.2,0.1,1.8
	c-4,0.1-7.1,3.3-7.1,7.3c0,0.4,0,0.7,0.1,1.1c0,0.2,0.1,0.3,0.3,0.3h32.1c0.2,0,0.4-0.1,0.4-0.3L84.2,20.4z"/>
<path class="st2" d="M89.7,9.2h-0.5c-0.1,0-0.2,0.1-0.3,0.2l-0.7,2.4c-0.3,0.9-0.2,1.8,0.3,2.6c0.5,0.6,1.3,1,2.1,1.1l3.7,0.2
	c0.1,0,0.2,0.1,0.3,0.1c0.1,0.1,0.1,0.2,0,0.3c0,0,0,0,0,0c-0.1,0.2-0.2,0.3-0.4,0.3l-3.8,0.2c-2.3,0.3-4.2,1.7-5.1,3.8l-0.2,0.9
	c-0.1,0.1,0,0.3,0.2,0.3h13.2c0.1,0,0.3-0.1,0.3-0.2c0,0,0-0.1,0-0.1c0.2-0.8,0.4-1.7,0.4-2.6C99.2,13.5,94.9,9.2,89.7,9.2"/>
<path class="st0" d="M100.5,27.2c-0.5,0-0.9-0.4-0.9-0.9c0-0.5,0.4-0.9,0.9-0.9c0.5,0,0.9,0.4,0.9,0.9
	C101.4,26.8,101,27.2,100.5,27.2C100.5,27.2,100.5,27.2,100.5,27.2 M100.5,25.6c-0.4,0-0.7,0.3-0.7,0.7s0.3,0.7,0.7,0.7
	c0.4,0,0.7-0.3,0.7-0.7v0C101.2,25.9,100.9,25.6,100.5,25.6C100.5,25.6,100.5,25.6,100.5,25.6 M100.9,26.8h-0.2l-0.2-0.3h-0.2v0.3
	h-0.2v-0.9h0.5c0.1,0,0.3,0.1,0.3,0.2c0,0,0,0.1,0,0.1c0,0.1-0.1,0.2-0.2,0.3L100.9,26.8L100.9,26.8z M100.6,26.3
	c0.1,0,0.1,0,0.1-0.1c0-0.1,0-0.1-0.1-0.1c0,0,0,0,0,0h-0.3v0.3L100.6,26.3L100.6,26.3z M10.9,25.4h2.2v6h3.8v1.9h-6V25.4z
	 M19.2,29.3c0-2.3,1.8-4.1,4.1-4.1c0.1,0,0.1,0,0.2,0c2.2-0.1,4.1,1.6,4.2,3.8c0,0.1,0,0.2,0,0.3c0,2.3-1.8,4.1-4.1,4.1
	c-0.1,0-0.1,0-0.2,0c-2.3,0.1-4.1-1.7-4.2-4C19.2,29.4,19.2,29.3,19.2,29.3 M25.5,29.3c0.1-1.1-0.8-2.1-1.9-2.2c0,0-0.1,0-0.1,0
	c-1.2,0.1-2.1,1-2,2.2c0.1,1.1,0.9,1.9,2,2C24.7,31.5,25.5,30.5,25.5,29.3 M30.4,29.8v-4.4h2.2v4.4c0,1.1,0.6,1.7,1.5,1.7
	c0.8,0.1,1.4-0.5,1.5-1.3c0-0.1,0-0.2,0-0.3v-4.5h2.2v4.4c0,2.6-1.5,3.7-3.7,3.7C31.8,33.4,30.4,32.3,30.4,29.8 M41.1,25.4h3.1
	c2.8,0,4.5,1.6,4.5,3.9s-1.7,4-4.5,4h-3L41.1,25.4L41.1,25.4z M44.2,31.3c1.1,0.1,2.1-0.7,2.2-1.8c0.1-1.1-0.7-2.1-1.8-2.2
	c-0.1,0-0.3,0-0.4,0h-0.9v4H44.2z M51.8,25.4h6.3v1.9H54v1.3h3.7v1.8H54v2.9h-2.2L51.8,25.4z M61.2,25.4h2.2v6h3.8v1.9h-6V25.4z
	 M72.9,25.3h2.2l3.4,8h-2.4l-0.6-1.4h-3.1l-0.6,1.4h-2.3L72.9,25.3z M74.9,30.2L74,28l-0.9,2.2L74.9,30.2z M81.3,25.4H85
	c1-0.1,1.9,0.2,2.6,0.9c1,1.1,0.9,2.7-0.1,3.7c-0.2,0.2-0.5,0.4-0.8,0.5l1.9,2.8h-2.5l-1.6-2.4h-1v2.4h-2.2L81.3,25.4z M84.9,29.2
	c0.7,0,1.2-0.4,1.2-0.9c0-0.6-0.5-0.9-1.2-0.9h-1.4v1.9h1.4L84.9,29.2z M91.4,25.4h6.4v1.8h-4.2v1.2h3.8v1.8h-3.8v1.2h4.3v1.9h-6.5
	L91.4,25.4z M6.1,30.3c-0.3,0.7-1,1.2-1.8,1.2c-1.2-0.1-2.1-1-2-2.2c0.1-1.1,0.9-1.9,2-2c0.8,0,1.6,0.5,1.9,1.3h2.3
	c-0.4-2-2.2-3.4-4.2-3.3C2,25.2,0.1,27,0,29.3c0,0,0,0,0,0.1c0,2.3,1.8,4.1,4.1,4.1c0,0,0.1,0,0.1,0c2,0,3.7-1.3,4.2-3.2H6.1z"/>
</svg>
